<mxfile host="app.diagrams.net" agent="Mozilla/5.0 (Macintosh; Intel Mac OS X 10_15_7) AppleWebKit/537.36 (KHTML, like Gecko) Chrome/134.0.0.0 Safari/537.36" version="26.2.3">
  <diagram name="第 1 页" id="cJoUxN17sgPwNlzdT023">
    <mxGraphModel dx="1020" dy="689" grid="1" gridSize="10" guides="1" tooltips="1" connect="1" arrows="1" fold="1" page="1" pageScale="1" pageWidth="827" pageHeight="1169" math="0" shadow="0">
      <root>
        <mxCell id="0" />
        <mxCell id="1" parent="0" />
        <mxCell id="OqbFvXizEy2dfRfVLzfx-4" style="edgeStyle=orthogonalEdgeStyle;rounded=0;orthogonalLoop=1;jettySize=auto;html=1;" edge="1" parent="1" source="OqbFvXizEy2dfRfVLzfx-1" target="OqbFvXizEy2dfRfVLzfx-3">
          <mxGeometry relative="1" as="geometry" />
        </mxCell>
        <mxCell id="OqbFvXizEy2dfRfVLzfx-1" value="客户端client2" style="rounded=1;whiteSpace=wrap;html=1;fillColor=#dae8fc;strokeColor=#6c8ebf;" vertex="1" parent="1">
          <mxGeometry x="10" y="250" width="90" height="50" as="geometry" />
        </mxCell>
        <mxCell id="OqbFvXizEy2dfRfVLzfx-5" style="edgeStyle=orthogonalEdgeStyle;rounded=0;orthogonalLoop=1;jettySize=auto;html=1;entryX=0;entryY=0.5;entryDx=0;entryDy=0;" edge="1" parent="1" source="OqbFvXizEy2dfRfVLzfx-2" target="OqbFvXizEy2dfRfVLzfx-3">
          <mxGeometry relative="1" as="geometry" />
        </mxCell>
        <mxCell id="OqbFvXizEy2dfRfVLzfx-2" value="客户端client3" style="rounded=1;whiteSpace=wrap;html=1;fillColor=#dae8fc;strokeColor=#6c8ebf;" vertex="1" parent="1">
          <mxGeometry x="10" y="330" width="90" height="50" as="geometry" />
        </mxCell>
        <mxCell id="OqbFvXizEy2dfRfVLzfx-3" value="Redis服务端" style="rounded=0;whiteSpace=wrap;html=1;fillColor=#f8cecc;strokeColor=#b85450;" vertex="1" parent="1">
          <mxGeometry x="170" y="220" width="100" height="190" as="geometry" />
        </mxCell>
        <mxCell id="OqbFvXizEy2dfRfVLzfx-6" value="subscribe hello" style="text;html=1;align=center;verticalAlign=middle;whiteSpace=wrap;rounded=0;" vertex="1" parent="1">
          <mxGeometry x="40" y="300" width="100" height="30" as="geometry" />
        </mxCell>
        <mxCell id="OqbFvXizEy2dfRfVLzfx-8" value="客户端client2" style="rounded=1;whiteSpace=wrap;html=1;fillColor=#dae8fc;strokeColor=#6c8ebf;" vertex="1" parent="1">
          <mxGeometry x="710" y="260" width="90" height="50" as="geometry" />
        </mxCell>
        <mxCell id="OqbFvXizEy2dfRfVLzfx-10" value="客户端client3" style="rounded=1;whiteSpace=wrap;html=1;fillColor=#dae8fc;strokeColor=#6c8ebf;" vertex="1" parent="1">
          <mxGeometry x="710" y="330" width="90" height="50" as="geometry" />
        </mxCell>
        <mxCell id="OqbFvXizEy2dfRfVLzfx-16" style="edgeStyle=orthogonalEdgeStyle;rounded=0;orthogonalLoop=1;jettySize=auto;html=1;" edge="1" parent="1" source="OqbFvXizEy2dfRfVLzfx-11" target="OqbFvXizEy2dfRfVLzfx-8">
          <mxGeometry relative="1" as="geometry" />
        </mxCell>
        <mxCell id="OqbFvXizEy2dfRfVLzfx-17" style="edgeStyle=orthogonalEdgeStyle;rounded=0;orthogonalLoop=1;jettySize=auto;html=1;" edge="1" parent="1" source="OqbFvXizEy2dfRfVLzfx-11" target="OqbFvXizEy2dfRfVLzfx-10">
          <mxGeometry relative="1" as="geometry" />
        </mxCell>
        <mxCell id="OqbFvXizEy2dfRfVLzfx-11" value="Redis服务端" style="rounded=0;whiteSpace=wrap;html=1;fillColor=#f8cecc;strokeColor=#b85450;" vertex="1" parent="1">
          <mxGeometry x="540" y="220" width="100" height="190" as="geometry" />
        </mxCell>
        <mxCell id="OqbFvXizEy2dfRfVLzfx-15" value="" style="edgeStyle=orthogonalEdgeStyle;rounded=0;orthogonalLoop=1;jettySize=auto;html=1;" edge="1" parent="1" source="OqbFvXizEy2dfRfVLzfx-14" target="OqbFvXizEy2dfRfVLzfx-11">
          <mxGeometry relative="1" as="geometry" />
        </mxCell>
        <mxCell id="OqbFvXizEy2dfRfVLzfx-14" value="客户端client1" style="rounded=1;whiteSpace=wrap;html=1;fillColor=#dae8fc;strokeColor=#6c8ebf;" vertex="1" parent="1">
          <mxGeometry x="369" y="290" width="90" height="50" as="geometry" />
        </mxCell>
        <mxCell id="OqbFvXizEy2dfRfVLzfx-18" value="publish hello msg" style="text;html=1;align=center;verticalAlign=middle;whiteSpace=wrap;rounded=0;" vertex="1" parent="1">
          <mxGeometry x="430" y="340" width="120" height="30" as="geometry" />
        </mxCell>
        <mxCell id="OqbFvXizEy2dfRfVLzfx-19" value="这两个客户端都可以接收到msg信息" style="ellipse;shape=cloud;whiteSpace=wrap;html=1;" vertex="1" parent="1">
          <mxGeometry x="680" y="390" width="120" height="80" as="geometry" />
        </mxCell>
      </root>
    </mxGraphModel>
  </diagram>
</mxfile>
